<?xml version="1.0" encoding="UTF-8" standalone="no"?>
<!-- Created with Inkscape (http://www.inkscape.org/) -->

<svg
   xmlns:dc="http://purl.org/dc/elements/1.1/"
   xmlns:cc="http://creativecommons.org/ns#"
   xmlns:rdf="http://www.w3.org/1999/02/22-rdf-syntax-ns#"
   xmlns:svg="http://www.w3.org/2000/svg"
   xmlns="http://www.w3.org/2000/svg"
   xmlns:xlink="http://www.w3.org/1999/xlink"
   xmlns:sodipodi="http://sodipodi.sourceforge.net/DTD/sodipodi-0.dtd"
   xmlns:inkscape="http://www.inkscape.org/namespaces/inkscape"
   width="28.797001mm"
   height="23.378334mm"
   viewBox="0 0 102.03662 82.836616"
   id="svg2"
   version="1.1"
   inkscape:version="0.91 r"
   sodipodi:docname="logo.svg">
  <defs
     id="defs4">
    <symbol
       id="tags"
       class="Web-Application-Icons">
      <title
         id="title71107">tags</title>
      <path
         transform="matrix(0.05,0,0,-0.05,0,76.8)"
         d="m 448,1088 q 0,53 -37.5,90.5 Q 373,1216 320,1216 267,1216 229.5,1178.5 192,1141 192,1088 192,1035 229.5,997.5 267,960 320,960 q 53,0 90.5,37.5 Q 448,1035 448,1088 Z M 1515,512 q 0,-53 -37,-90 L 987,-70 q -39,-37 -91,-37 -53,0 -90,37 L 91,646 Q 53,683 26.5,747 0,811 0,864 l 0,416 q 0,52 38,90 38,38 90,38 l 416,0 q 53,0 117,-26.5 64,-26.5 102,-64.5 l 715,-714 q 37,-39 37,-91 z m 384,0 q 0,-53 -37,-90 L 1371,-70 q -39,-37 -91,-37 -36,0 -59,14 -23,14 -53,45 l 470,470 q 37,37 37,90 0,52 -37,91 l -715,714 q -38,38 -102,64.5 -64,26.5 -117,26.5 l 224,0 q 53,0 117,-26.5 64,-26.5 102,-64.5 l 715,-714 q 37,-39 37,-91 z"
         id="path71109"
         inkscape:connector-curvature="0" />
    </symbol>
  </defs>
  <sodipodi:namedview
     id="base"
     pagecolor="#ffffff"
     bordercolor="#666666"
     borderopacity="1.0"
     inkscape:pageopacity="0.0"
     inkscape:pageshadow="2"
     inkscape:zoom="2.8"
     inkscape:cx="-3.0964611"
     inkscape:cy="-10.536503"
     inkscape:document-units="px"
     inkscape:current-layer="layer1"
     showgrid="false"
     fit-margin-top="1"
     fit-margin-left="1"
     fit-margin-bottom="1"
     fit-margin-right="1"
     inkscape:window-width="2495"
     inkscape:window-height="1416"
     inkscape:window-x="65"
     inkscape:window-y="24"
     inkscape:window-maximized="1" />
  <metadata
     id="metadata7">
    <rdf:RDF>
      <cc:Work
         rdf:about="">
        <dc:format>image/svg+xml</dc:format>
        <dc:type
           rdf:resource="http://purl.org/dc/dcmitype/StillImage" />
        <dc:title></dc:title>
      </cc:Work>
    </rdf:RDF>
  </metadata>
  <g
     inkscape:label="Layer 1"
     inkscape:groupmode="layer"
     id="layer1"
     transform="translate(-6.1245571,-5.2296114)">
    <use
       id="use76022"
       xlink:href="#tags"
       x="0"
       y="0"
       width="100%"
       height="100%"
       transform="matrix(0.77840641,0,0,0.77840641,22.167864,12.719689)" />
  </g>
</svg>
